<?xml version="1.0" encoding="utf-8"?>
<!-- Generator: Adobe Illustrator 24.0.0, SVG Export Plug-In . SVG Version: 6.00 Build 0)  -->
<svg version="1.1" id="Layer_1" xmlns="http://www.w3.org/2000/svg" xmlns:xlink="http://www.w3.org/1999/xlink" x="0px" y="0px"
	 viewBox="0 0 256 256" enable-background="new 0 0 256 256" xml:space="preserve">
<g>
</g>
<g>
	<path fill="#F0C020" d="M40.52,89.547c-0.694,32.49,16.545,61.014,42.496,76.361c3.027,1.79,4.868,5.058,4.868,8.575v15.993
		c0,6.668,5.405,12.073,12.073,12.073h56.528c6.668,0,12.073-5.405,12.073-12.073V172.89c0-3.41,1.734-6.59,4.613-8.417
		c24.156-15.326,40.192-42.301,40.192-73.031c0-47.731-38.697-86.425-86.434-86.425C79.696,5.017,41.516,43.339,40.52,89.547z"/>
	<path fill="#E7A523" d="M102.921,155.498l10.976-37.949H98.312c-7.289,0-12.535-6.989-10.494-13.992l16.839-57.608
		c1.328-4.615,5.644-7.857,10.485-7.857h25.167c7.317,0,12.519,7,10.496,13.964l-8.717,30.327h15.601
		c8.749,0,13.952,9.804,9.053,17.052l-44.284,65.235C115.451,174.981,99.517,167.29,102.921,155.498z"/>
	<path fill="#EFEFEF" d="M158.35,202.545v22.675c0,5.52-4.48,10-10,10h-40.26c-5.52,0-10-4.48-10-10v-22.675H158.35z"/>
	<rect x="98.09" y="202.545" fill="#AFAFAF" width="60.26" height="7"/>
	<path fill="#7D7B79" d="M146.88,235.221v10.759c0,2.76-2.24,5-5,5h-27.76c-2.76,0-5-2.24-5-5v-10.759H146.88z"/>
	<rect x="109.12" y="235.221" fill="#4C4944" width="37.76" height="7"/>
	<path fill="#EFEFEF" d="M160.941,95.514l-44.276,65.223c-2.513,3.7-8.25,0.967-7.019-3.297l13.562-46.892H98.312
		c-2.623,0-4.506-2.52-3.773-5.033l16.837-57.603c0.476-1.656,2.03-2.821,3.766-2.821h25.168c2.63,0,4.499,2.513,3.773,5.011
		l-11.291,39.279h24.896C160.846,89.381,162.7,92.913,160.941,95.514z"/>
	<path fill="#F0C020" d="M248.018,100.224c-3.961-1.309-8.051-2.453-10.348-12.345c-2.115,9.112-5.504,10.745-10.348,12.345
		c7.9,2.61,9.092,6.933,10.348,12.345C239.835,103.239,243.416,101.744,248.018,100.224z"/>
	<path d="M235.08,113.17c-1.147-4.945-1.905-8.212-8.591-10.421c-2.43-0.803-2.424-4.25,0-5.051
		c4.025-1.33,6.684-2.209,8.591-10.422c0.633-2.73,4.546-2.737,5.181,0c1.95,8.399,4.863,9.193,8.591,10.421
		c2.43,0.803,2.424,4.25,0,5.051c-3.881,1.282-6.686,2.209-8.591,10.421C239.625,115.912,235.717,115.913,235.08,113.17z
		 M233.56,100.284c1.914,1.314,3.222,2.815,4.164,4.403c1.141-2.017,2.462-3.405,3.934-4.439c-1.411-1.01-2.778-2.44-3.977-4.601
		C236.494,97.781,235.108,99.222,233.56,100.284z"/>
	<path fill="#F0C020" d="M28.677,100.224c-3.961-1.309-8.051-2.453-10.348-12.345c-2.115,9.112-5.504,10.745-10.348,12.345
		c7.9,2.61,9.092,6.933,10.348,12.345C20.494,103.239,24.075,101.744,28.677,100.224z"/>
	<path d="M15.738,113.17c-1.147-4.945-1.905-8.212-8.591-10.421c-2.43-0.803-2.424-4.25,0-5.051
		c4.025-1.33,6.684-2.209,8.591-10.422c0.633-2.73,4.546-2.737,5.181,0c1.95,8.399,4.863,9.193,8.591,10.421
		c2.43,0.803,2.424,4.25,0,5.051c-3.881,1.282-6.686,2.209-8.591,10.421C20.283,115.912,16.376,115.913,15.738,113.17z
		 M14.218,100.284c1.914,1.314,3.222,2.815,4.164,4.403c1.141-2.017,2.462-3.405,3.934-4.439c-1.411-1.01-2.778-2.44-3.977-4.601
		C17.153,97.781,15.767,99.222,14.218,100.284z"/>
	<path fill="#F7E4B0" d="M158.559,192.975c-1.381,0-2.5-1.119-2.5-2.5v-3c0-1.381,1.119-2.5,2.5-2.5s2.5,1.119,2.5,2.5v3
		C161.059,191.856,159.939,192.975,158.559,192.975z M158.559,179.975c-1.381,0-2.5-1.119-2.5-2.5v-4.585
		c0-7.741,3.894-14.833,10.417-18.972c21.532-13.662,34.388-37.017,34.388-62.476c0-40.763-33.167-73.925-73.935-73.925
		c-14.996,0-29.842,4.379-44.126,13.014c-1.18,0.714-2.718,0.336-3.433-0.846c-0.714-1.182-0.335-2.718,0.846-3.433
		c15.075-9.115,30.792-13.736,46.713-13.736c43.524,0,78.935,35.406,78.935,78.925c0,27.181-13.724,52.114-36.71,66.698
		c-5.068,3.216-8.095,8.73-8.095,14.75v4.585C161.059,178.856,159.939,179.975,158.559,179.975z"/>
	<path d="M158.35,216.05c-1.38,0-2.5,1.12-2.5,2.49c0,1.38,1.12,2.51,2.5,2.51s2.5-1.13,2.5-2.51
		C160.85,217.17,159.729,216.05,158.35,216.05z"/>
	<path d="M38,91.43c0,32.551,17.501,61.123,43.74,76.63c2.25,1.33,3.64,3.79,3.64,6.42v15.99c0.008,6.518,4.302,12.048,10.21,13.909
		v20.841c0,6.392,4.831,11.674,11.03,12.406v8.355c0,4.13,3.37,7.5,7.5,7.5h27.76c4.13,0,7.5-3.37,7.5-7.5v-8.304
		c4.904-0.405,9.163-3.672,10.79-8.376c0.45-1.3-0.25-2.73-1.55-3.18c-1.28-0.44-2.74,0.28-3.181,1.55
		c-1.04,3.02-3.89,5.05-7.09,5.05c-26.27,0-14.165,0-40.26,0c-4.13-0.01-7.49-3.37-7.5-7.5v-2.91h20.91c1.38,0,2.5-1.12,2.5-2.5
		c0-1.38-1.12-2.5-2.5-2.5h-20.91v-12.26h55.26v3.49c0,1.38,1.12,2.51,2.5,2.51s2.5-1.13,2.5-2.51v-4.159
		c5.908-1.859,10.21-7.391,10.21-13.911v-17.58c0-2.58,1.29-4.94,3.45-6.31c5.65-3.58,10.91-7.82,15.63-12.59
		c0.986-0.986,0.948-2.582-0.02-3.53c-0.95-0.94-2.59-0.93-3.53,0.02c-4.46,4.5-9.42,8.5-14.76,11.88
		c-3.61,2.3-5.771,6.23-5.771,10.53v17.58c-0.01,5.28-4.31,9.57-9.569,9.58H99.96c-5.271-0.01-9.57-4.3-9.58-9.58v-15.99
		c0-4.39-2.33-8.5-6.09-10.73C58.819,148.69,42.99,120.97,43,91.43c0-46.147,37.356-83.91,83.93-83.91
		c46.383,0,83.93,37.525,83.93,83.92c0,15.5-4.26,30.64-12.31,43.79c-0.72,1.173-0.365,2.712,0.82,3.44
		c1.21,0.728,2.719,0.345,3.439-0.83c8.54-13.93,13.05-29.97,13.05-46.4c0-49.036-39.712-88.92-88.93-88.92
		C77.941,2.52,38,42.68,38,91.43z M111.62,237.72h32.76v8.26c0,1.38-1.13,2.5-2.5,2.5h-27.76c-1.38,0-2.5-1.12-2.5-2.5V237.72z"/>
	<path d="M193.01,143.2c-0.01,0-0.01,0-0.01,0.01c-0.859,1.089-0.64,2.673,0.43,3.5c1.046,0.832,2.64,0.679,3.5-0.42
		c0.01,0,0.01,0,0.01-0.01c0.846-1.072,0.688-2.616-0.42-3.51C195.46,141.95,193.83,142.15,193.01,143.2z"/>
	<path d="M118.729,162.14l44.28-65.22c2.885-4.305-0.186-10.01-5.32-10.04h-21.58l10.37-36.09c1.212-4.137-1.957-8.188-6.17-8.2
		h-25.17c-2.88,0.01-5.359,1.87-6.17,4.63l-5.89,20.14c-0.374,1.325,0.358,2.702,1.7,3.1c1.31,0.38,2.729-0.41,3.109-1.7v-0.01
		l5.88-20.14c0.16-0.57,0.75-1.02,1.351-1.02h25.189c0.78,0,1.42,0.64,1.431,1.41c0,0.326-11.26,39.377-11.351,39.69
		c-0.458,1.564,0.714,3.19,2.4,3.19h24.899c1.132,0,1.82,1.261,1.181,2.24L114.6,159.33c-1.044,1.426-2.995,0.219-2.56-1.18
		l13.569-46.91c0.475-1.614-0.768-3.19-2.399-3.19h-24.9c-0.839,0-1.619-0.792-1.38-1.82l5.34-18.27
		c0.403-1.354-0.396-2.739-1.7-3.1c-1.3-0.39-2.72,0.41-3.09,1.7l-5.34,18.25c-1.22,4.004,1.84,8.228,6.17,8.24h21.57l-12.63,43.7
		C105.129,163.677,114.74,168.215,118.729,162.14z"/>
	<path d="M101.979,80.06c1.283,0.389,2.709-0.364,3.101-1.7c0.39-1.32-0.38-2.71-1.7-3.1c-1.29-0.38-2.73,0.41-3.1,1.7
		C99.89,78.28,100.649,79.67,101.979,80.06z"/>
</g>
</svg>
