<?xml version="1.0" encoding="utf-8"?>
<!-- Generator: Adobe Illustrator 24.0.0, SVG Export Plug-In . SVG Version: 6.00 Build 0)  -->
<svg version="1.1" xmlns="http://www.w3.org/2000/svg" xmlns:xlink="http://www.w3.org/1999/xlink" x="0px" y="0px"
	 viewBox="0 0 256 256" enable-background="new 0 0 256 256" xml:space="preserve">
<g id="Layer_2" display="none">
	<rect x="-92" y="-1464" display="inline" fill="#FFFFFF" width="1786" height="5896"/>
</g>
<g id="Layer_1">
	<g>
		<g>
			<polygon fill="#7D7B79" points="79.972,196.086 40.672,196.086 33.072,140.086 31.972,132.086 71.272,132.086 72.372,140.086 
				75.572,164.086 			"/>
		</g>
		<g>
			<polygon fill="#4C4944" points="72.372,140.086 33.072,140.086 31.972,132.086 71.272,132.086 			"/>
		</g>
		<g>
			<path fill="#F0C020" d="M92.872,151.686l-2.9-11.6l-2-8h-16.7l1.1,8l3.2,24h7.6C89.672,164.086,94.472,157.986,92.872,151.686z"
				/>
		</g>
		<g>
			<polygon fill="#E8A61E" points="89.972,140.086 72.372,140.086 71.272,132.086 87.972,132.086 			"/>
		</g>
		<g>
			<path fill="#72C2E9" d="M158.072,52.086v64l-19,12.6c-3.3,2.2-7.1,3.4-11.1,3.4h-100c-11,0-20-9-20-20v-56c0-11,9-20,20-20h28v27
				c0,2.8,2.2,5,5,5h54c2.8,0,5-2.2,5-5v-27h8c4,0,7.8,1.2,11.1,3.4L158.072,52.086z"/>
		</g>
		<g>
			<path fill="#C5E5FE" d="M127.972,123.586h-82.6c-1.4,0-2.5-1.1-2.5-2.5s1.1-2.5,2.5-2.5h82.6c1.3,0,2.5-0.4,3.6-1.1l12.9-8.6
				v-50.9c0-1.4,1.1-2.5,2.5-2.5s2.5,1.1,2.5,2.5v52.2c0,0.8-0.4,1.6-1.1,2.1l-14.1,9.4
				C132.472,122.886,130.272,123.586,127.972,123.586z M35.372,123.586h-7.4c-1.4,0-2.5-1.1-2.5-2.5s1.1-2.5,2.5-2.5h7.4
				c1.4,0,2.5,1.1,2.5,2.5S36.772,123.586,35.372,123.586z"/>
		</g>
		<g>
			<path fill="#F0C020" d="M185.972,108.086h-11.9v-48h11.9c1.3,0,2.6,0.5,3.5,1.5l7.1,7.1c0.9,0.9,1.5,2.2,1.5,3.5v23.9
				c0,1.3-0.5,2.6-1.5,3.5l-7.1,7C188.572,107.586,187.272,108.086,185.972,108.086z"/>
		</g>
		<g>
			<polygon fill="#EFEFEF" points="240.872,92.086 198.072,92.086 198.072,76.086 247.972,76.086 			"/>
		</g>
		<g>
			<path fill="#7D7B79" d="M169.072,116.086h-11v-64h11c2.8,0,5,2.2,5,5v54C174.072,113.886,171.772,116.086,169.072,116.086z"/>
		</g>
		<g>
			<path fill="#72C2E9" d="M103.972,201.086v22c0,2.8-2.2,5-5,5h-62c-2.8,0-5-2.2-5-5v-22c0-2.8,2.2-5,5-5h62
				C101.772,196.086,103.972,198.286,103.972,201.086z"/>
			<g>
				<path fill="#C5E5FE" d="M93.972,220.586h-36c-1.4,0-2.5-1.1-2.5-2.5s1.1-2.5,2.5-2.5h33.5v-9.5c0-1.4,1.1-2.5,2.5-2.5
					s2.5,1.1,2.5,2.5v12C96.472,219.486,95.372,220.586,93.972,220.586z M47.972,220.586h-6c-1.4,0-2.5-1.1-2.5-2.5s1.1-2.5,2.5-2.5
					h6c1.4,0,2.5,1.1,2.5,2.5S49.372,220.586,47.972,220.586z"/>
			</g>
		</g>
		<g>
			<path fill="#F0C020" d="M119.972,33.086v30c0,2.8-2.2,5-5,5h-54c-2.8,0-5-2.2-5-5v-30c0-2.8,2.2-5,5-5h54
				C117.772,28.086,119.972,30.286,119.972,33.086z"/>
		</g>
		<g>
			<path fill="#F8E5B0" d="M109.972,60.586h-30c-1.4,0-2.5-1.1-2.5-2.5s1.1-2.5,2.5-2.5h27.5v-17.5c0-1.4,1.1-2.5,2.5-2.5
				s2.5,1.1,2.5,2.5v20C112.472,59.486,111.372,60.586,109.972,60.586z M69.972,60.586h-4c-1.4,0-2.5-1.1-2.5-2.5s1.1-2.5,2.5-2.5h4
				c1.4,0,2.5,1.1,2.5,2.5C72.472,59.486,71.372,60.586,69.972,60.586z"/>
		</g>
		<g>
			<circle fill="#EFEFEF" cx="31.972" cy="56.086" r="8"/>
		</g>
		<g>
			<circle cx="7.972" cy="72.086" r="2.5"/>
			<path d="M247.972,73.586h-12.2l2-4.5c0.6-1.3,0-2.7-1.3-3.3c-1.3-0.6-2.7,0-3.3,1.3l-2.9,6.5h-7.8l2-4.5c0.6-1.3,0-2.7-1.3-3.3
				c-1.3-0.6-2.7,0-3.3,1.3l-2.9,6.5h-16.6v-1.4c0-2-0.8-3.9-2.2-5.3l-7.1-7.1c-1.4-1.4-3.3-2.2-5.3-2.2h-9.4v-0.5
				c0-4.1-3.4-7.5-7.5-7.5h-10.2l-18.2-12.2c-3.7-2.5-8-3.8-12.5-3.8h-5.5v-0.5c0-4.1-3.4-7.5-7.5-7.5h-54c-4.1,0-7.5,3.4-7.5,7.5
				v0.5h-25.5c-12.4,0-22.5,10.1-22.5,22.5v6c0,1.4,1.1,2.5,2.5,2.5c1.4,0,2.5-1.1,2.5-2.5v-6c0-9.6,7.9-17.5,17.5-17.5h25.5v24.5
				c0,4.1,3.4,7.5,7.5,7.5h54c4.1,0,7.5-3.4,7.5-7.5v-24.5h5.5c3.5,0,6.8,1,9.7,2.9l17.9,11.9v61.3l-17.9,11.9
				c-2.9,1.9-6.3,2.9-9.7,2.9c-9.6,0-90.2,0-100,0c-9.6,0.1-17.5-7.8-17.5-17.4v-30c0-1.4-1.1-2.5-2.5-2.5c-1.4,0-2.5,1.1-2.5,2.5
				v30c0,12.4,10.1,22.5,22.5,22.5h1.8l4.1,30.1c0.2,1.5,1.6,2.4,2.8,2.1c1.4-0.2,2.3-1.4,2.1-2.8l-4-29.5h34.2l8,59h-34.1l-1.3-9.7
				c-0.2-1.3-1.5-2.3-2.8-2.1c-1.4,0.2-2.3,1.5-2.1,2.8l1.2,9.1h-0.9c-4.1,0-7.5,3.4-7.5,7.5v22c0,4.1,3.4,7.5,7.5,7.5h62
				c4.1,0,7.5-3.4,7.5-7.5v-22c0-4.1-3.4-7.5-7.5-7.5h-16.8l-3.7-27h4.7c8.1,0,14.1-7.6,12.1-15.5l-4.1-16.5h36.8
				c4.4,0,8.8-1.3,12.5-3.8l18.3-12.2h10.2c4.1,0,7.5-3.4,7.5-7.5v-0.5h9.4c2,0,3.9-0.8,5.3-2.2l7.1-7.1c1.4-1.4,2.2-3.3,2.2-5.3
				v-1.4h7.3l-2.1,4.7c-0.6,1.3,0,2.7,1.3,3.3c1.3,0.6,2.7,0,3.3-1.3l3-6.8h7.8l-2.1,4.7c-0.6,1.3,0,2.7,1.3,3.3s2.7,0,3.3-1.3
				l3-6.8h14.4c1,0,1.9-0.6,2.3-1.5l7.1-16C250.972,75.486,249.772,73.586,247.972,73.586z M117.472,36.086v27
				c0,1.4-1.1,2.5-2.5,2.5h-54c-1.4,0-2.5-1.1-2.5-2.5v-27v-3c0-1.4,1.1-2.5,2.5-2.5h54c1.4,0,2.5,1.1,2.5,2.5V36.086z
				 M98.972,198.586c1.4,0,2.5,1.1,2.5,2.5v22c0,1.4-1.1,2.5-2.5,2.5h-62c-1.4,0-2.5-1.1-2.5-2.5v-22c0-1.4,1.1-2.5,2.5-2.5
				C43.872,198.586,91.472,198.586,98.972,198.586z M83.172,161.586h-5.4l-3.7-27h11.9l4.5,17.7
				C91.672,156.986,88.072,161.586,83.172,161.586z M171.572,111.086c0,1.4-1.1,2.5-2.5,2.5h-8.5v-7h5.5c1.4,0,2.5-1.1,2.5-2.5
				c0-1.4-1.1-2.5-2.5-2.5h-5.5v-8.3h5.5c1.4,0,2.5-1.1,2.5-2.5s-1.1-2.5-2.5-2.5h-5.5v-8.3h5.5c1.4,0,2.5-1.1,2.5-2.5
				c0-1.4-1.1-2.5-2.5-2.5h-5.5v-8.4h5.5c1.4,0,2.5-1.1,2.5-2.5c0-1.4-1.1-2.5-2.5-2.5h-5.5v-7h8.5c1.4,0,2.5,1.1,2.5,2.5
				C171.572,63.786,171.572,104.386,171.572,111.086z M195.572,95.986c0,0.7-0.3,1.3-0.7,1.8l-7.1,7.1c-0.5,0.5-1.1,0.7-1.8,0.7
				h-9.4v-43h9.4c0.7,0,1.3,0.3,1.8,0.7l7.1,7.1c0.5,0.5,0.7,1.1,0.7,1.8C195.572,89.586,195.572,88.286,195.572,95.986z
				 M210.072,89.586h-9.5v-11h14.4L210.072,89.586z M223.272,89.586h-7.8l4.9-11h7.8L223.272,89.586z M239.272,89.586h-10.5l4.9-11
				h10.5L239.272,89.586z"/>
			<path d="M38.072,176.786c1.4-0.2,2.3-1.4,2.1-2.8c-0.2-1.3-1.5-2.3-2.8-2.1s-2.3,1.4-2.1,2.8
				C35.372,175.886,36.472,176.886,38.072,176.786z"/>
			<path d="M23.972,86.586h32c1.4,0,2.5-1.1,2.5-2.5c0-1.4-1.1-2.5-2.5-2.5h-32c-1.4,0-2.5,1.1-2.5,2.5
				C21.472,85.486,22.572,86.586,23.972,86.586z"/>
			<path d="M23.972,97.286h32c1.4,0,2.5-1.1,2.5-2.5s-1.1-2.5-2.5-2.5h-32c-1.4,0-2.5,1.1-2.5,2.5S22.572,97.286,23.972,97.286z"/>
			<path d="M23.972,107.886h32c1.4,0,2.5-1.1,2.5-2.5c0-1.4-1.1-2.5-2.5-2.5h-32c-1.4,0-2.5,1.1-2.5,2.5
				C21.472,106.786,22.572,107.886,23.972,107.886z"/>
			<path d="M31.972,66.586c5.8,0,10.5-4.7,10.5-10.5c0-5.8-4.7-10.5-10.5-10.5c-5.8,0-10.5,4.7-10.5,10.5
				C21.472,61.886,26.172,66.586,31.972,66.586z M31.972,50.586c3,0,5.5,2.5,5.5,5.5s-2.5,5.5-5.5,5.5s-5.5-2.5-5.5-5.5
				S28.972,50.586,31.972,50.586z"/>
		</g>
	</g>
</g>
</svg>
